# xmcd CD database file
#
# Track frame offsets:
#	150
#	14544
#	26795
#	38512
#	56420
#	72248
#	90252
#	104466
#	119165
#	139873
#	162229
#	174733
#	183529
#	194999
#	208860
#	223823
#	256181
#	269730
#
# Disc length: 3772 seconds
#
# Revision: 0
# Processed by: cddbd v1.5.2PL0 Copyright (c) Steve Scherf et al.
# Submitted via: CDex 1.70beta2
#
DISCID=1c0eba12
DTITLE=JAZZ ALLSTARS - JAZZ ALLSTARS CD1
DYEAR=2005
DGENRE=Jazz
TTITLE0=NAT KING COLE-Unforgettable
TTITLE1=PATSY CLINE-Crazy
TTITLE2=DORIS DAY-Sentimental Journey
TTITLE3=BILLIE HOLIDAY-God Bless The Child
TTITLE4=MARILYN MONROE-Diamonds Are A Girl's Best Friend
TTITLE5=LOUIS ARMSTRONG-Cabaret
TTITLE6=ELLA FITZGERALD and THE DELTA RHYTHM BOYS-(I Love You)For Sentimental
TTITLE7=FRANK SINATRA-Everybody Loves Somebody
TTITLE8=CARMEN McRAE-Send In The Clowns
TTITLE9=EARL HINES with LIONEL HAMPTON-Misty
TTITLE10=SARAH VAUGHAN-What A Difference A Day Made
TTITLE11=ROSEMARY CLOONEY-Come On-A My House
TTITLE12=DEAN MARTIN-Powder Your Face With Sunshine
TTITLE13=PEGGY LEE -I Don't Know Enough About You
TTITLE14=ARTIE SHAW-Frenesi
TTITLE15=DAVE BRUBECK QUARTET-Take Five(Live)
TTITLE16=BENNY GOODMAN QUARTET-Jersey Bounce
TTITLE17=SOUL SERENADE-King Curtis
EXTD=YEAR: 2005
EXTT0=
EXTT1=
EXTT2=
EXTT3=
EXTT4=
EXTT5=
EXTT6=
EXTT7=
EXTT8=
EXTT9=
EXTT10=
EXTT11=
EXTT12=
EXTT13=
EXTT14=
EXTT15=
EXTT16=
EXTT17=
PLAYORDER=
